# xmcd
#
# Track frame offsets: 
#        150
#        14060
#        28590
#        40617
#        53825
#        65887
#        77380
#        89035
#        103330
#        117105
#        130552
#        144235
#        155445
#        166880
#        179257
#        191532
#        204955
#        217275
#        229002
#        240412
#        253367
#        265652
#        276392
#        290057
#        303490
#
# Disc length: 4240 seconds
#
# Revision: 3
# Processed by: cddbd v1.5.2PL0 Copyright (c) Steve Scherf et al.
# Submitted via: ExactAudioCopy v0.95b4
#
DISCID=6e108e19
DTITLE=Various Artist - Chicago Blues - The Chance Era, Disc One
DYEAR=1997
DGENRE=Blues
TTITLE0=John Lee Hooker - Miss Lorraine
TTITLE1=John Lee Hooker - I Love To Boogie
TTITLE2=Little Walter Jacobs - That's Alright (Ora Nelle Blues)
TTITLE3=Homesick James Williamson - Lonesome Old Train
TTITLE4=Homesick James Williamson - Williamson Shuffle
TTITLE5=Arthur "Big Boy" Spires - About To Lose My Mind 
TTITLE6=Arthur "Big Boy" Spires - My Baby Left Me
TTITLE7=Arthur "Big Boy" Spires - Some Day Little Darling
TTITLE8=Lazy Bill Lucas - She Got Me Walking
TTITLE9=Lazy Bill Lucas - I Had A Dream
TTITLE10=J.B. Hutto - Price Of Love
TTITLE11=J.B. Hutto - Pet Cream Man
TTITLE12=J.B. Hutto - Lovin' You
TTITLE13=Homesick James Williamson - Whiskey Headed Woman
TTITLE14=Homesick James Williamson - 12th Street Station
TTITLE15=Homesick James Williamson - Wartime
TTITLE16=Johnny Williams - Silver Haired Woman
TTITLE17=Johnny Williams - Fat Mouth
TTITLE18=Willie Nix - Nervous Wreck
TTITLE19=Willie Nix - No More Love
TTITLE20=Homesick James Williamson - The Woman I Love (My Home Is In G
TTITLE20=eorgia)
TTITLE21=Homesick James Williamson - Dirty Rat
TTITLE22=Jimmy Eager - Baby Please Don't Throw Me Down
TTITLE23=Jimmy Eager - I Should Have Loved Her More
TTITLE24=John Lee Hooker - Graveyard Blues
EXTD=
EXTT0=
EXTT1=
EXTT2=
EXTT3=
EXTT4=
EXTT5=
EXTT6=
EXTT7=
EXTT8=
EXTT9=
EXTT10=
EXTT11=
EXTT12=
EXTT13=
EXTT14=
EXTT15=
EXTT16=
EXTT17=
EXTT18=
EXTT19=
EXTT20=
EXTT21=
EXTT22=
EXTT23=
EXTT24=
PLAYORDER=
